<svg width="17" height="16" viewBox="0 0 17 16" fill="none" xmlns="http://www.w3.org/2000/svg">
<g clip-path="url(#clip0_1_83)">
<path d="M2.9894 2H13.8677C14.2284 2 14.5742 2.14048 14.8292 2.39052C15.0842 2.64057 15.2275 2.97971 15.2275 3.33333V7.33333C15.2275 9.10144 14.5112 10.7971 13.2361 12.0474C11.9611 13.2976 10.2318 14 8.42856 14C7.53571 14 6.6516 13.8276 5.82672 13.4925C5.00183 13.1575 4.25232 12.6664 3.62098 12.0474C2.34593 10.7971 1.62962 9.10144 1.62962 7.33333V3.33333C1.62962 2.97971 1.77288 2.64057 2.02789 2.39052C2.2829 2.14048 2.62877 2 2.9894 2V2Z" stroke="#0768B5" stroke-width="2" stroke-linecap="round" stroke-linejoin="round"/>
<path d="M5.70898 6.66669L8.42856 9.33335L11.1481 6.66669" stroke="#0768B5" stroke-width="2" stroke-linecap="round" stroke-linejoin="round"/>
</g>
<defs>
<clipPath id="clip0_1_83">
<rect width="16.3175" height="16" fill="white" transform="translate(0.269836)"/>
</clipPath>
</defs>
</svg>
